<svg viewBox="0 0 128 128" fill="none" xmlns="http://www.w3.org/2000/svg">
  <defs>
    <linearGradient id="brainFill" x1="24" y1="24" x2="62" y2="92" gradientUnits="userSpaceOnUse">
      <stop stop-color="#8DE6FF"/>
      <stop offset="0.52" stop-color="#57B7FF"/>
      <stop offset="1" stop-color="#2C66DA"/>
    </linearGradient>
    <linearGradient id="brainFillSoft" x1="30" y1="30" x2="60" y2="86" gradientUnits="userSpaceOnUse">
      <stop stop-color="#62CCFF"/>
      <stop offset="1" stop-color="#2D73EB"/>
    </linearGradient>
    <linearGradient id="chipStroke" x1="58" y1="38" x2="86" y2="68" gradientUnits="userSpaceOnUse">
      <stop stop-color="#3569C7"/>
      <stop offset="1" stop-color="#173C85"/>
    </linearGradient>
    <linearGradient id="chipGlow" x1="64" y1="44" x2="80" y2="66" gradientUnits="userSpaceOnUse">
      <stop stop-color="#15306B"/>
      <stop offset="1" stop-color="#0A173C"/>
    </linearGradient>
    <filter id="softShadow" x="8" y="12" width="112" height="104" filterUnits="userSpaceOnUse" color-interpolation-filters="sRGB">
      <feDropShadow dx="0" dy="4" stdDeviation="4" flood-color="#020816" flood-opacity="0.32"/>
    </filter>
  </defs>

  <g filter="url(#softShadow)">
    <g stroke="#0A3472" stroke-width="4.4" stroke-linecap="round" stroke-linejoin="round">
      <path d="M39 27C48 27 55 34 55 43V81C55 89 49 96 41 96"/>
      <path d="M54 44L62 44"/>
      <path d="M54 58L62 58"/>
      <path d="M54 72L62 72"/>
    </g>

    <g stroke="#0A3472" stroke-width="4">
      <circle cx="40" cy="36" r="13" fill="url(#brainFill)"/>
      <circle cx="31" cy="52" r="11" fill="url(#brainFillSoft)"/>
      <circle cx="43" cy="55" r="12" fill="url(#brainFill)"/>
      <circle cx="33" cy="69" r="10" fill="url(#brainFillSoft)"/>
      <circle cx="47" cy="71" r="12" fill="url(#brainFill)"/>
      <circle cx="26" cy="39" r="8" fill="url(#brainFillSoft)"/>
    </g>

    <g>
      <rect x="58" y="39" width="25" height="32" rx="7" fill="#0B1A43" stroke="url(#chipStroke)" stroke-width="4.2"/>
      <rect x="63" y="44" width="15" height="22" rx="3.8" fill="url(#chipGlow)"/>
      <path d="M67 50L72 55L67 60" stroke="#6EBEFF" stroke-width="4" stroke-linecap="round" stroke-linejoin="round"/>
      <path d="M71 50H74.5" stroke="#6EBEFF" stroke-width="4" stroke-linecap="round"/>
      <g stroke="#1B4B97" stroke-width="3.6" stroke-linecap="round">
        <path d="M62 46H57"/>
        <path d="M62 55H57"/>
        <path d="M62 64H57"/>
        <path d="M84 46H89"/>
        <path d="M84 55H89"/>
        <path d="M84 64H89"/>
      </g>
    </g>

    <g stroke="#0A3472" stroke-width="4.2" stroke-linecap="round" stroke-linejoin="round">
      <path d="M84 42L96 32"/>
      <path d="M90 54H104"/>
      <path d="M84 67L98 80"/>
      <path d="M97 32V26"/>
      <path d="M104 54V54"/>
      <path d="M99 80V86"/>
    </g>

    <g fill="#F4C530" stroke="#0A3472" stroke-width="3">
      <circle cx="97" cy="24" r="5.2"/>
      <circle cx="108" cy="54" r="5.2"/>
      <circle cx="99" cy="88" r="5.2"/>
      <circle cx="47" cy="23" r="4.4"/>
      <circle cx="46" cy="88" r="4.4"/>
    </g>

    <g fill="#5AAEFF" opacity="0.9">
      <circle cx="37" cy="31" r="4"/>
      <circle cx="28" cy="47" r="3.6"/>
      <circle cx="42" cy="49" r="4"/>
      <circle cx="39" cy="66" r="3.8"/>
      <circle cx="49" cy="66" r="3.8"/>
    </g>
  </g>
</svg>
